<mxfile host="app.diagrams.net" agent="Mozilla/5.0 (Windows NT 10.0; Win64; x64) AppleWebKit/537.36 (KHTML, like Gecko) Chrome/140.0.0.0 Safari/537.36" version="28.2.3">
  <diagram name="Page-1" id="FhI5WFT_i6hG-SGLkC0E">
    <mxGraphModel dx="1246" dy="664" grid="1" gridSize="10" guides="1" tooltips="1" connect="1" arrows="1" fold="1" page="1" pageScale="1" pageWidth="850" pageHeight="1100" math="0" shadow="0">
      <root>
        <mxCell id="0" />
        <mxCell id="1" parent="0" />
        <mxCell id="rJK0zX7TGELIpVlpy_Fz-61" style="edgeStyle=orthogonalEdgeStyle;rounded=0;orthogonalLoop=1;jettySize=auto;html=1;exitX=0.5;exitY=1;exitDx=0;exitDy=0;" edge="1" parent="1" source="rJK0zX7TGELIpVlpy_Fz-27">
          <mxGeometry relative="1" as="geometry">
            <mxPoint x="329.7142857142858" y="100" as="targetPoint" />
          </mxGeometry>
        </mxCell>
        <mxCell id="rJK0zX7TGELIpVlpy_Fz-27" value="Plan" style="rounded=0;whiteSpace=wrap;html=1;" vertex="1" parent="1">
          <mxGeometry x="270" y="10" width="120" height="60" as="geometry" />
        </mxCell>
        <mxCell id="rJK0zX7TGELIpVlpy_Fz-62" style="edgeStyle=orthogonalEdgeStyle;rounded=0;orthogonalLoop=1;jettySize=auto;html=1;" edge="1" parent="1" source="rJK0zX7TGELIpVlpy_Fz-29">
          <mxGeometry relative="1" as="geometry">
            <mxPoint x="330" y="240" as="targetPoint" />
            <Array as="points">
              <mxPoint x="330" y="230" />
              <mxPoint x="330" y="230" />
            </Array>
          </mxGeometry>
        </mxCell>
        <mxCell id="rJK0zX7TGELIpVlpy_Fz-63" value="Text" style="edgeLabel;html=1;align=center;verticalAlign=middle;resizable=0;points=[];" vertex="1" connectable="0" parent="rJK0zX7TGELIpVlpy_Fz-62">
          <mxGeometry x="1" y="9" relative="1" as="geometry">
            <mxPoint x="49" y="10" as="offset" />
          </mxGeometry>
        </mxCell>
        <mxCell id="rJK0zX7TGELIpVlpy_Fz-29" value="Develop" style="ellipse;whiteSpace=wrap;html=1;" vertex="1" parent="1">
          <mxGeometry x="270" y="110" width="120" height="80" as="geometry" />
        </mxCell>
        <mxCell id="rJK0zX7TGELIpVlpy_Fz-54" value="" style="edgeStyle=orthogonalEdgeStyle;rounded=0;orthogonalLoop=1;jettySize=auto;html=1;" edge="1" parent="1" source="rJK0zX7TGELIpVlpy_Fz-31">
          <mxGeometry relative="1" as="geometry">
            <mxPoint x="330" y="380" as="targetPoint" />
          </mxGeometry>
        </mxCell>
        <mxCell id="rJK0zX7TGELIpVlpy_Fz-31" value="build" style="whiteSpace=wrap;html=1;aspect=fixed;" vertex="1" parent="1">
          <mxGeometry x="290" y="250" width="80" height="80" as="geometry" />
        </mxCell>
        <mxCell id="rJK0zX7TGELIpVlpy_Fz-72" value="" style="edgeStyle=orthogonalEdgeStyle;rounded=0;orthogonalLoop=1;jettySize=auto;html=1;" edge="1" parent="1" source="rJK0zX7TGELIpVlpy_Fz-66" target="rJK0zX7TGELIpVlpy_Fz-70">
          <mxGeometry relative="1" as="geometry" />
        </mxCell>
        <mxCell id="rJK0zX7TGELIpVlpy_Fz-66" value="test" style="rhombus;whiteSpace=wrap;html=1;" vertex="1" parent="1">
          <mxGeometry x="290" y="350" width="80" height="60" as="geometry" />
        </mxCell>
        <mxCell id="rJK0zX7TGELIpVlpy_Fz-79" value="" style="edgeStyle=orthogonalEdgeStyle;rounded=0;orthogonalLoop=1;jettySize=auto;html=1;" edge="1" parent="1" source="rJK0zX7TGELIpVlpy_Fz-70" target="rJK0zX7TGELIpVlpy_Fz-77">
          <mxGeometry relative="1" as="geometry" />
        </mxCell>
        <mxCell id="rJK0zX7TGELIpVlpy_Fz-70" value="release" style="shape=parallelogram;perimeter=parallelogramPerimeter;whiteSpace=wrap;html=1;fixedSize=1;" vertex="1" parent="1">
          <mxGeometry x="270" y="500" width="120" height="60" as="geometry" />
        </mxCell>
        <mxCell id="rJK0zX7TGELIpVlpy_Fz-88" value="" style="edgeStyle=orthogonalEdgeStyle;rounded=0;orthogonalLoop=1;jettySize=auto;html=1;" edge="1" parent="1" source="rJK0zX7TGELIpVlpy_Fz-77" target="rJK0zX7TGELIpVlpy_Fz-82">
          <mxGeometry relative="1" as="geometry" />
        </mxCell>
        <mxCell id="rJK0zX7TGELIpVlpy_Fz-77" value="deploy" style="shape=hexagon;perimeter=hexagonPerimeter2;whiteSpace=wrap;html=1;fixedSize=1;" vertex="1" parent="1">
          <mxGeometry x="270" y="620" width="120" height="80" as="geometry" />
        </mxCell>
        <mxCell id="rJK0zX7TGELIpVlpy_Fz-92" value="" style="edgeStyle=orthogonalEdgeStyle;rounded=0;orthogonalLoop=1;jettySize=auto;html=1;" edge="1" parent="1" source="rJK0zX7TGELIpVlpy_Fz-82" target="rJK0zX7TGELIpVlpy_Fz-86">
          <mxGeometry relative="1" as="geometry" />
        </mxCell>
        <mxCell id="rJK0zX7TGELIpVlpy_Fz-82" value="operate" style="ellipse;shape=cloud;whiteSpace=wrap;html=1;" vertex="1" parent="1">
          <mxGeometry x="270" y="730" width="120" height="80" as="geometry" />
        </mxCell>
        <mxCell id="rJK0zX7TGELIpVlpy_Fz-86" value="monitor" style="shape=tape;whiteSpace=wrap;html=1;" vertex="1" parent="1">
          <mxGeometry x="270" y="860" width="120" height="100" as="geometry" />
        </mxCell>
      </root>
    </mxGraphModel>
  </diagram>
</mxfile>
